<?xml version="1.0" standalone="no"?>
<!DOCTYPE svg PUBLIC "-//W3C//DTD SVG 20010904//EN"
 "http://www.w3.org/TR/2001/REC-SVG-20010904/DTD/svg10.dtd">
<svg version="1.0" xmlns="http://www.w3.org/2000/svg"
 width="196.000000pt" height="196.000000pt" viewBox="0 0 196.000000 196.000000"
 preserveAspectRatio="xMidYMid meet">
<metadata>
Created by potrace 1.11, written by Peter Selinger 2001-2013
</metadata>
<g transform="translate(0.000000,196.000000) scale(0.100000,-0.100000)"
fill="#000000" stroke="none">
<path d="M160 1660 l0 -140 140 0 140 0 0 140 0 140 -140 0 -140 0 0 -140z
m240 0 l0 -100 -100 0 -100 0 0 100 0 100 100 0 100 0 0 -100z"/>
<path d="M240 1660 l0 -60 60 0 60 0 0 60 0 60 -60 0 -60 0 0 -60z"/>
<path d="M520 1780 c0 -13 -7 -20 -20 -20 -13 0 -20 -7 -20 -20 0 -13 7 -20
20 -20 13 0 20 -7 20 -20 0 -13 -7 -20 -20 -20 -13 0 -20 -7 -20 -20 0 -13 7
-20 20 -20 13 0 20 -7 20 -20 0 -13 -7 -20 -20 -20 -17 0 -20 -7 -20 -40 0
-33 3 -40 20 -40 13 0 20 7 20 20 0 13 7 20 20 20 13 0 20 -7 20 -20 0 -13 7
-20 20 -20 13 0 20 7 20 20 0 13 7 20 20 20 17 0 20 -7 20 -40 0 -33 3 -40 20
-40 17 0 20 7 20 40 0 33 3 40 20 40 17 0 20 -7 20 -40 0 -33 3 -40 20 -40 13
0 20 -7 20 -20 0 -17 7 -20 40 -20 l40 0 0 60 c0 53 2 60 20 60 13 0 20 -7 20
-20 0 -13 7 -20 20 -20 13 0 20 -7 20 -20 0 -13 -7 -20 -20 -20 -13 0 -20 -7
-20 -20 0 -18 7 -20 80 -20 73 0 80 2 80 20 0 17 7 20 40 20 33 0 40 3 40 20
0 13 7 20 20 20 17 0 20 -7 20 -40 l0 -40 60 0 c53 0 60 2 60 20 0 13 7 20 20
20 17 0 20 -7 20 -40 l0 -40 -80 0 -80 0 0 -40 c0 -33 3 -40 20 -40 18 0 20
-7 20 -80 0 -73 2 -80 20 -80 13 0 20 -7 20 -20 0 -13 7 -20 20 -20 13 0 20
-7 20 -20 0 -13 -7 -20 -20 -20 -17 0 -20 -7 -20 -40 0 -33 3 -40 20 -40 13 0
20 -7 20 -20 0 -17 -7 -20 -40 -20 -33 0 -40 3 -40 20 0 13 -7 20 -20 20 -13
0 -20 7 -20 20 0 18 -7 20 -80 20 l-80 0 0 40 c0 33 -3 40 -20 40 -13 0 -20 7
-20 20 0 13 -7 20 -20 20 -13 0 -20 -7 -20 -20 0 -13 -7 -20 -20 -20 -18 0
-20 -7 -20 -60 0 -53 2 -60 20 -60 13 0 20 -7 20 -20 0 -17 7 -20 40 -20 33 0
40 -3 40 -20 0 -17 7 -20 40 -20 l40 0 0 -80 0 -80 -80 0 c-73 0 -80 2 -80 20
0 13 -7 20 -20 20 -13 0 -20 7 -20 20 0 18 -7 20 -80 20 l-80 0 0 -40 c0 -33
-3 -40 -20 -40 -17 0 -20 -7 -20 -40 0 -33 3 -40 20 -40 17 0 20 -7 20 -40 0
-33 3 -40 20 -40 17 0 20 -7 20 -40 l0 -40 60 0 60 0 0 -100 c0 -93 -1 -100
-20 -100 -13 0 -20 -7 -20 -20 0 -13 -7 -20 -20 -20 -13 0 -20 7 -20 20 0 13
-7 20 -20 20 -13 0 -20 7 -20 20 0 17 -7 20 -40 20 l-40 0 0 40 c0 33 -3 40
-20 40 -13 0 -20 7 -20 20 0 13 7 20 20 20 18 0 20 7 20 60 0 53 -2 60 -20 60
-17 0 -20 7 -20 40 0 33 -3 40 -20 40 -13 0 -20 7 -20 20 0 13 7 20 20 20 13
0 20 7 20 20 0 18 -7 20 -60 20 -53 0 -60 2 -60 20 0 13 -7 20 -20 20 -17 0
-20 -7 -20 -40 0 -33 -3 -40 -20 -40 -13 0 -20 7 -20 20 0 13 -7 20 -20 20
-13 0 -20 7 -20 20 0 13 7 20 20 20 13 0 20 7 20 20 0 17 -7 20 -40 20 -33 0
-40 3 -40 20 0 18 -7 20 -60 20 -53 0 -60 -2 -60 -20 0 -13 -7 -20 -20 -20
-17 0 -20 7 -20 40 0 33 3 40 20 40 13 0 20 7 20 20 0 13 7 20 20 20 19 0 20
7 20 100 l0 100 40 0 c33 0 40 -3 40 -20 0 -13 -7 -20 -20 -20 -13 0 -20 -7
-20 -20 0 -13 7 -20 20 -20 13 0 20 -7 20 -20 0 -17 7 -20 40 -20 33 0 40 -3
40 -20 0 -17 -7 -20 -40 -20 -33 0 -40 -3 -40 -20 0 -18 7 -20 60 -20 53 0 60
2 60 20 0 13 7 20 20 20 13 0 20 7 20 20 0 17 -7 20 -40 20 -33 0 -40 3 -40
20 0 17 7 20 40 20 33 0 40 3 40 20 0 13 7 20 20 20 13 0 20 -7 20 -20 0 -18
7 -20 60 -20 53 0 60 2 60 20 0 17 -7 20 -40 20 -33 0 -40 3 -40 20 0 13 -7
20 -20 20 -13 0 -20 7 -20 20 0 13 7 20 20 20 13 0 20 7 20 20 0 17 -7 20 -40
20 l-40 0 0 -60 0 -60 -40 0 c-33 0 -40 3 -40 20 0 13 -7 20 -20 20 -13 0 -20
7 -20 20 0 13 7 20 20 20 13 0 20 7 20 20 0 13 -7 20 -20 20 -13 0 -20 7 -20
20 0 13 7 20 20 20 13 0 20 7 20 20 0 13 -7 20 -20 20 -13 0 -20 7 -20 20 0
13 7 20 20 20 13 0 20 7 20 20 0 13 -7 20 -20 20 -13 0 -20 7 -20 20 0 18 7
20 60 20 53 0 60 2 60 20 0 18 -7 20 -60 20 -53 0 -60 -2 -60 -20 0 -13 -7
-20 -20 -20 -13 0 -20 7 -20 20 0 19 -7 20 -100 20 l-100 0 0 -120 0 -120 40
0 40 0 0 -80 c0 -73 -2 -80 -20 -80 -13 0 -20 7 -20 20 0 13 -7 20 -20 20 -19
0 -20 -7 -20 -200 0 -193 1 -200 20 -200 13 0 20 -7 20 -20 0 -13 7 -20 20
-20 13 0 20 -7 20 -20 0 -13 7 -20 20 -20 13 0 20 -7 20 -20 0 -13 7 -20 20
-20 13 0 20 7 20 20 0 13 7 20 20 20 13 0 20 -7 20 -20 0 -13 7 -20 20 -20 13
0 20 -7 20 -20 0 -13 7 -20 20 -20 13 0 20 -7 20 -20 0 -13 -7 -20 -20 -20
-13 0 -20 -7 -20 -20 0 -13 7 -20 20 -20 13 0 20 7 20 20 0 13 7 20 20 20 18
0 20 -7 20 -60 0 -53 2 -60 20 -60 13 0 20 -7 20 -20 0 -13 -7 -20 -20 -20
-19 0 -20 -7 -20 -100 l0 -100 120 0 120 0 0 40 c0 33 3 40 20 40 17 0 20 -7
20 -40 l0 -40 100 0 c93 0 100 1 100 20 0 13 -7 20 -20 20 -13 0 -20 7 -20 20
0 13 7 20 20 20 17 0 20 7 20 40 0 33 3 40 20 40 17 0 20 -7 20 -40 0 -33 3
-40 20 -40 13 0 20 -7 20 -20 0 -17 7 -20 40 -20 33 0 40 -3 40 -20 0 -18 7
-20 80 -20 73 0 80 2 80 20 0 13 7 20 20 20 13 0 20 -7 20 -20 0 -13 7 -20 20
-20 13 0 20 7 20 20 0 17 7 20 40 20 33 0 40 -3 40 -20 0 -13 7 -20 20 -20 13
0 20 7 20 20 0 13 7 20 20 20 13 0 20 7 20 20 0 13 7 20 20 20 17 0 20 -7 20
-40 0 -33 3 -40 20 -40 17 0 20 7 20 40 l0 40 40 0 c33 0 40 3 40 20 0 13 7
20 20 20 17 0 20 -7 20 -40 0 -33 -3 -40 -20 -40 -13 0 -20 -7 -20 -20 0 -13
7 -20 20 -20 13 0 20 7 20 20 0 13 7 20 20 20 17 0 20 7 20 40 0 33 -3 40 -20
40 -17 0 -20 7 -20 40 0 33 -3 40 -20 40 -13 0 -20 -7 -20 -20 0 -13 -7 -20
-20 -20 -17 0 -20 7 -20 40 l0 40 40 0 40 0 0 40 c0 33 -3 40 -20 40 -13 0
-20 7 -20 20 0 17 7 20 40 20 l40 0 0 -40 c0 -33 3 -40 20 -40 17 0 20 7 20
40 0 33 -3 40 -20 40 -13 0 -20 7 -20 20 0 17 -7 20 -40 20 -33 0 -40 -3 -40
-20 0 -19 -7 -20 -120 -20 -113 0 -120 1 -120 20 0 18 7 20 60 20 53 0 60 2
60 20 0 18 -7 20 -60 20 l-60 0 0 40 c0 33 3 40 20 40 17 0 20 7 20 40 l0 40
40 0 40 0 0 -40 0 -40 40 0 c33 0 40 3 40 20 0 13 -7 20 -20 20 -13 0 -20 7
-20 20 0 13 7 20 20 20 13 0 20 7 20 20 0 13 7 20 20 20 17 0 20 -7 20 -40 0
-33 3 -40 20 -40 13 0 20 -7 20 -20 0 -13 -7 -20 -20 -20 -13 0 -20 -7 -20
-20 0 -13 7 -20 20 -20 13 0 20 -7 20 -20 0 -17 7 -20 40 -20 33 0 40 3 40 20
0 17 -7 20 -40 20 -33 0 -40 3 -40 20 0 17 7 20 40 20 l40 0 0 80 c0 73 -2 80
-20 80 -13 0 -20 7 -20 20 0 13 -7 20 -20 20 -13 0 -20 -7 -20 -20 0 -13 -7
-20 -20 -20 -13 0 -20 7 -20 20 0 13 -7 20 -20 20 -17 0 -20 -7 -20 -40 l0
-40 -80 0 c-73 0 -80 2 -80 20 0 13 -7 20 -20 20 -18 0 -20 7 -20 80 0 73 -2
80 -20 80 -17 0 -20 7 -20 40 0 33 3 40 20 40 13 0 20 -7 20 -20 0 -13 7 -20
20 -20 17 0 20 7 20 40 l0 40 -40 0 c-33 0 -40 3 -40 20 0 13 7 20 20 20 13 0
20 7 20 20 0 17 -7 20 -40 20 -33 0 -40 -3 -40 -20 0 -13 -7 -20 -20 -20 -18
0 -20 7 -20 60 0 53 2 60 20 60 13 0 20 -7 20 -20 0 -13 7 -20 20 -20 13 0 20
7 20 20 0 13 7 20 20 20 13 0 20 7 20 20 0 13 7 20 20 20 18 0 20 7 20 60 0
53 2 60 20 60 13 0 20 -7 20 -20 0 -13 7 -20 20 -20 13 0 20 -7 20 -20 0 -13
7 -20 20 -20 13 0 20 -7 20 -20 0 -13 7 -20 20 -20 13 0 20 -7 20 -20 0 -13
-7 -20 -20 -20 -13 0 -20 -7 -20 -20 0 -13 7 -20 20 -20 17 0 20 -7 20 -40 l0
-40 60 0 c53 0 60 2 60 20 0 17 -7 20 -40 20 -33 0 -40 3 -40 20 0 13 7 20 20
20 13 0 20 7 20 20 0 13 7 20 20 20 13 0 20 -7 20 -20 0 -13 7 -20 20 -20 13
0 20 7 20 20 0 13 -7 20 -20 20 -13 0 -20 7 -20 20 0 13 7 20 20 20 13 0 20 7
20 20 0 13 -7 20 -20 20 -13 0 -20 7 -20 20 0 13 7 20 20 20 13 0 20 7 20 20
0 13 -7 20 -20 20 -13 0 -20 7 -20 20 0 13 -7 20 -20 20 -18 0 -20 -7 -20 -60
0 -53 2 -60 20 -60 13 0 20 -7 20 -20 0 -17 -7 -20 -40 -20 -33 0 -40 3 -40
20 0 13 -7 20 -20 20 -13 0 -20 7 -20 20 0 13 7 20 20 20 17 0 20 7 20 40 0
33 -3 40 -20 40 -13 0 -20 -7 -20 -20 0 -13 -7 -20 -20 -20 -13 0 -20 7 -20
20 0 13 -7 20 -20 20 -13 0 -20 -7 -20 -20 0 -13 -7 -20 -20 -20 -13 0 -20 7
-20 20 0 13 -7 20 -20 20 -13 0 -20 -7 -20 -20 0 -18 -7 -20 -60 -20 -53 0
-60 2 -60 20 0 13 7 20 20 20 17 0 20 7 20 40 0 33 -3 40 -20 40 -13 0 -20 7
-20 20 0 13 7 20 20 20 13 0 20 7 20 20 0 13 7 20 20 20 13 0 20 7 20 20 0 13
-7 20 -20 20 -17 0 -20 7 -20 40 0 33 3 40 20 40 13 0 20 -7 20 -20 0 -13 7
-20 20 -20 17 0 20 7 20 40 l0 40 -80 0 c-73 0 -80 -2 -80 -20 0 -13 -7 -20
-20 -20 -13 0 -20 7 -20 20 0 17 -7 20 -40 20 -33 0 -40 -3 -40 -20 0 -13 7
-20 20 -20 13 0 20 -7 20 -20 0 -17 7 -20 40 -20 33 0 40 -3 40 -20 0 -17 -7
-20 -40 -20 -33 0 -40 -3 -40 -20 0 -17 7 -20 40 -20 33 0 40 -3 40 -20 0 -13
-7 -20 -20 -20 -18 0 -20 -7 -20 -60 0 -53 -2 -60 -20 -60 -17 0 -20 7 -20 40
0 33 -3 40 -20 40 -13 0 -20 7 -20 20 0 13 -7 20 -20 20 -13 0 -20 -7 -20 -20
0 -13 -7 -20 -20 -20 -13 0 -20 7 -20 20 0 13 -7 20 -20 20 -13 0 -20 7 -20
20 0 17 -7 20 -40 20 -33 0 -40 3 -40 20 0 13 -7 20 -20 20 -13 0 -20 7 -20
20 0 19 -7 20 -120 20 -113 0 -120 1 -120 20 0 13 7 20 20 20 13 0 20 7 20 20
0 17 -7 20 -40 20 -33 0 -40 -3 -40 -20 0 -17 -7 -20 -40 -20 -33 0 -40 3 -40
20 0 17 -7 20 -40 20 -33 0 -40 -3 -40 -20z m480 -160 c0 -13 -7 -20 -20 -20
-13 0 -20 7 -20 20 0 13 7 20 20 20 13 0 20 -7 20 -20z m-200 -80 c0 -13 -7
-20 -20 -20 -13 0 -20 7 -20 20 0 13 7 20 20 20 13 0 20 -7 20 -20z m160 0 c0
-13 -7 -20 -20 -20 -13 0 -20 7 -20 20 0 13 7 20 20 20 13 0 20 -7 20 -20z
m80 0 c0 -13 -7 -20 -20 -20 -13 0 -20 7 -20 20 0 13 7 20 20 20 13 0 20 -7
20 -20z m80 0 c0 -13 -7 -20 -20 -20 -13 0 -20 7 -20 20 0 13 7 20 20 20 13 0
20 -7 20 -20z m80 0 c0 -13 -7 -20 -20 -20 -13 0 -20 7 -20 20 0 13 7 20 20
20 13 0 20 -7 20 -20z m160 -20 c0 -33 -3 -40 -20 -40 -17 0 -20 7 -20 40 0
33 3 40 20 40 17 0 20 -7 20 -40z m-1040 -120 l0 -40 -40 0 c-33 0 -40 3 -40
20 0 13 7 20 20 20 13 0 20 7 20 20 0 13 7 20 20 20 17 0 20 -7 20 -40z m1120
-40 c0 -33 -3 -40 -20 -40 -17 0 -20 7 -20 40 0 33 3 40 20 40 17 0 20 -7 20
-40z m240 -100 c0 -13 -7 -20 -20 -20 -13 0 -20 7 -20 20 0 13 7 20 20 20 13
0 20 -7 20 -20z m-360 -120 c0 -13 -7 -20 -20 -20 -13 0 -20 7 -20 20 0 13 7
20 20 20 13 0 20 -7 20 -20z m-880 -40 c0 -13 -7 -20 -20 -20 -13 0 -20 7 -20
20 0 13 7 20 20 20 13 0 20 -7 20 -20z m960 -200 c0 -13 -7 -20 -20 -20 -13 0
-20 -7 -20 -20 0 -13 7 -20 20 -20 13 0 20 -7 20 -20 0 -13 -7 -20 -20 -20
-13 0 -20 7 -20 20 0 13 -7 20 -20 20 -13 0 -20 -7 -20 -20 0 -13 -7 -20 -20
-20 -13 0 -20 -7 -20 -20 0 -17 -7 -20 -40 -20 -33 0 -40 3 -40 20 0 17 7 20
40 20 33 0 40 3 40 20 0 13 7 20 20 20 13 0 20 7 20 20 0 13 7 20 20 20 13 0
20 7 20 20 0 13 7 20 20 20 13 0 20 -7 20 -20z m-1160 -120 c0 -13 -7 -20 -20
-20 -13 0 -20 7 -20 20 0 13 7 20 20 20 13 0 20 -7 20 -20z m1520 -20 c0 -33
-3 -40 -20 -40 -17 0 -20 7 -20 40 0 33 3 40 20 40 17 0 20 -7 20 -40z m-1440
-40 c0 -33 -3 -40 -20 -40 -17 0 -20 7 -20 40 0 33 3 40 20 40 17 0 20 -7 20
-40z m1120 0 c0 -33 -3 -40 -20 -40 -17 0 -20 7 -20 40 0 33 3 40 20 40 17 0
20 -7 20 -40z m-1000 -20 c0 -13 -7 -20 -20 -20 -13 0 -20 7 -20 20 0 13 7 20
20 20 13 0 20 -7 20 -20z m840 -20 c0 -33 -3 -40 -20 -40 -18 0 -20 -7 -20
-80 0 -73 2 -80 20 -80 13 0 20 7 20 20 0 13 7 20 20 20 13 0 20 7 20 20 0 13
7 20 20 20 13 0 20 7 20 20 0 13 7 20 20 20 18 0 20 -7 20 -60 0 -53 2 -60 20
-60 13 0 20 -7 20 -20 0 -17 -7 -20 -40 -20 l-40 0 0 40 c0 33 -3 40 -20 40
-17 0 -20 -7 -20 -40 l0 -40 -40 0 c-33 0 -40 3 -40 20 0 13 -7 20 -20 20 -13
0 -20 -7 -20 -20 0 -13 -7 -20 -20 -20 -13 0 -20 7 -20 20 0 13 -7 20 -20 20
-17 0 -20 7 -20 40 0 33 3 40 20 40 13 0 20 -7 20 -20 0 -13 7 -20 20 -20 18
0 20 7 20 60 0 53 2 60 20 60 13 0 20 7 20 20 0 13 -7 20 -20 20 -13 0 -20 7
-20 20 0 17 7 20 40 20 l40 0 0 -40z m-280 -40 c0 -33 -3 -40 -20 -40 -13 0
-20 -7 -20 -20 0 -17 -7 -20 -40 -20 -33 0 -40 3 -40 20 0 13 7 20 20 20 13 0
20 7 20 20 0 13 -7 20 -20 20 -13 0 -20 7 -20 20 0 18 7 20 60 20 l60 0 0 -40z
m-560 -20 c0 -13 -7 -20 -20 -20 -13 0 -20 7 -20 20 0 13 7 20 20 20 13 0 20
-7 20 -20z m640 -140 c0 -33 -3 -40 -20 -40 -17 0 -20 7 -20 40 0 33 3 40 20
40 17 0 20 -7 20 -40z m520 -60 l0 -60 -60 0 -60 0 0 60 0 60 60 0 60 0 0 -60z
m-600 0 c0 -13 -7 -20 -20 -20 -13 0 -20 7 -20 20 0 13 7 20 20 20 13 0 20 -7
20 -20z m280 -40 c0 -19 -7 -20 -100 -20 -93 0 -100 1 -100 20 0 19 7 20 100
20 93 0 100 -1 100 -20z m160 -60 l0 -40 -60 0 c-53 0 -60 -2 -60 -20 0 -13 7
-20 20 -20 13 0 20 -7 20 -20 0 -13 -7 -20 -20 -20 -13 0 -20 7 -20 20 0 13
-7 20 -20 20 -13 0 -20 -7 -20 -20 0 -18 -7 -20 -60 -20 -53 0 -60 2 -60 20 0
13 -7 20 -20 20 -13 0 -20 7 -20 20 0 13 7 20 20 20 13 0 20 7 20 20 0 17 7
20 40 20 l40 0 0 -40 c0 -33 3 -40 20 -40 17 0 20 7 20 40 l0 40 60 0 c53 0
60 2 60 20 0 13 7 20 20 20 17 0 20 -7 20 -40z m-880 -20 c0 -13 7 -20 20 -20
13 0 20 7 20 20 0 13 7 20 20 20 13 0 20 -7 20 -20 0 -13 7 -20 20 -20 13 0
20 7 20 20 0 17 7 20 40 20 33 0 40 -3 40 -20 0 -13 7 -20 20 -20 13 0 20 -7
20 -20 0 -13 7 -20 20 -20 13 0 20 7 20 20 0 13 7 20 20 20 17 0 20 -7 20 -40
l0 -40 -40 0 c-33 0 -40 3 -40 20 0 13 -7 20 -20 20 -13 0 -20 7 -20 20 0 13
-7 20 -20 20 -13 0 -20 -7 -20 -20 0 -13 -7 -20 -20 -20 -13 0 -20 -7 -20 -20
0 -13 -7 -20 -20 -20 -13 0 -20 7 -20 20 0 13 -7 20 -20 20 -13 0 -20 -7 -20
-20 0 -17 -7 -20 -40 -20 l-40 0 0 60 c0 53 2 60 20 60 13 0 20 -7 20 -20z
m1000 0 c0 -17 -7 -20 -40 -20 -33 0 -40 3 -40 20 0 17 7 20 40 20 33 0 40 -3
40 -20z m80 0 c0 -13 -7 -20 -20 -20 -13 0 -20 7 -20 20 0 13 7 20 20 20 13 0
20 -7 20 -20z m-160 -80 c0 -13 -7 -20 -20 -20 -13 0 -20 7 -20 20 0 13 7 20
20 20 13 0 20 -7 20 -20z"/>
<path d="M1520 420 c0 -13 7 -20 20 -20 13 0 20 7 20 20 0 13 -7 20 -20 20
-13 0 -20 -7 -20 -20z"/>
<path d="M1000 1780 c0 -18 7 -20 60 -20 53 0 60 2 60 20 0 18 -7 20 -60 20
-53 0 -60 -2 -60 -20z"/>
<path d="M1520 1660 l0 -140 140 0 140 0 0 140 0 140 -140 0 -140 0 0 -140z
m240 0 l0 -100 -100 0 -100 0 0 100 0 100 100 0 100 0 0 -100z"/>
<path d="M1600 1660 l0 -60 60 0 60 0 0 60 0 60 -60 0 -60 0 0 -60z"/>
<path d="M1440 1540 c0 -13 7 -20 20 -20 13 0 20 7 20 20 0 13 -7 20 -20 20
-13 0 -20 -7 -20 -20z"/>
<path d="M600 1300 c0 -13 7 -20 20 -20 18 0 20 -7 20 -60 0 -53 2 -60 20 -60
13 0 20 7 20 20 0 13 7 20 20 20 13 0 20 -7 20 -20 0 -13 7 -20 20 -20 17 0
20 7 20 40 0 33 -3 40 -20 40 -13 0 -20 7 -20 20 0 13 -7 20 -20 20 -13 0 -20
7 -20 20 0 17 -7 20 -40 20 -33 0 -40 -3 -40 -20z"/>
<path d="M840 1240 c0 -33 3 -40 20 -40 17 0 20 7 20 40 0 33 -3 40 -20 40
-17 0 -20 -7 -20 -40z"/>
<path d="M1480 1180 c0 -13 7 -20 20 -20 13 0 20 7 20 20 0 13 -7 20 -20 20
-13 0 -20 -7 -20 -20z"/>
<path d="M760 1100 c0 -13 7 -20 20 -20 13 0 20 7 20 20 0 13 -7 20 -20 20
-13 0 -20 -7 -20 -20z"/>
<path d="M1520 1100 c0 -17 7 -20 40 -20 33 0 40 -3 40 -20 0 -13 7 -20 20
-20 17 0 20 7 20 40 l0 40 -60 0 c-53 0 -60 -2 -60 -20z"/>
<path d="M1720 1080 c0 -33 3 -40 20 -40 13 0 20 7 20 20 0 13 7 20 20 20 13
0 20 7 20 20 0 17 -7 20 -40 20 l-40 0 0 -40z"/>
<path d="M600 1020 c0 -17 7 -20 40 -20 33 0 40 3 40 20 0 17 -7 20 -40 20
-33 0 -40 -3 -40 -20z"/>
<path d="M760 1020 c0 -13 7 -20 20 -20 13 0 20 7 20 20 0 13 -7 20 -20 20
-13 0 -20 -7 -20 -20z"/>
<path d="M1640 960 c0 -33 3 -40 20 -40 13 0 20 7 20 20 0 17 7 20 40 20 33 0
40 -3 40 -20 0 -13 7 -20 20 -20 17 0 20 7 20 40 l0 40 -80 0 -80 0 0 -40z"/>
<path d="M400 900 c0 -13 7 -20 20 -20 13 0 20 7 20 20 0 13 -7 20 -20 20 -13
0 -20 -7 -20 -20z"/>
<path d="M520 900 c0 -13 7 -20 20 -20 13 0 20 7 20 20 0 13 -7 20 -20 20 -13
0 -20 -7 -20 -20z"/>
<path d="M1480 900 c0 -13 7 -20 20 -20 13 0 20 -7 20 -20 0 -13 7 -20 20 -20
13 0 20 7 20 20 0 13 -7 20 -20 20 -13 0 -20 7 -20 20 0 13 -7 20 -20 20 -13
0 -20 -7 -20 -20z"/>
<path d="M160 560 c0 -73 2 -80 20 -80 18 0 20 7 20 80 0 73 -2 80 -20 80 -18
0 -20 -7 -20 -80z"/>
<path d="M320 500 c0 -13 7 -20 20 -20 13 0 20 7 20 20 0 13 -7 20 -20 20 -13
0 -20 -7 -20 -20z"/>
<path d="M160 300 l0 -140 140 0 140 0 0 140 0 140 -140 0 -140 0 0 -140z
m240 0 l0 -100 -100 0 -100 0 0 100 0 100 100 0 100 0 0 -100z"/>
<path d="M240 300 l0 -60 60 0 60 0 0 60 0 60 -60 0 -60 0 0 -60z"/>
<path d="M1760 360 c0 -33 3 -40 20 -40 17 0 20 7 20 40 0 33 -3 40 -20 40
-17 0 -20 -7 -20 -40z"/>
</g>
</svg>
